<?xml version="1.0" encoding="utf-8"?>
<!-- Generator: Adobe Illustrator 25.3.1, SVG Export Plug-In . SVG Version: 6.00 Build 0)  -->
<svg version="1.1" id="Layer_1" xmlns="http://www.w3.org/2000/svg" xmlns:xlink="http://www.w3.org/1999/xlink" x="0px" y="0px"
	 viewBox="0 0 1920 1080" style="enable-background:new 0 0 1920 1080;" xml:space="preserve">
<style type="text/css">
	.st0{opacity:0.5;}
	.st1{clip-path:url(#SVGID_2_);fill:url(#SVGID_3_);}
</style>
<g class="st0">
	<defs>
		
			<rect id="SVGID_1_" x="1471.37" y="57.17" transform="matrix(-1 -4.489976e-11 4.489976e-11 -1 3391.3684 1093.5518)" class="st0" width="448.63" height="979.21"/>
	</defs>
	<clipPath id="SVGID_2_">
		<use xlink:href="#SVGID_1_"  style="overflow:visible;"/>
	</clipPath>
	
		<linearGradient id="SVGID_3_" gradientUnits="userSpaceOnUse" x1="-1937.5643" y1="543.408" x2="-984.649" y2="543.408" gradientTransform="matrix(-1 0 0 1 489.7146 0)">
		<stop  offset="0" style="stop-color:#00CEAC"/>
		<stop  offset="0.1152" style="stop-color:#08CFAE"/>
		<stop  offset="0.2964" style="stop-color:#1FD3B2"/>
		<stop  offset="0.521" style="stop-color:#44D8B9"/>
		<stop  offset="0.7776" style="stop-color:#76E0C4"/>
		<stop  offset="1" style="stop-color:#A8E7CE"/>
	</linearGradient>
	<path class="st1" d="M2159.54,866.53c1.1-0.25,2.2-0.5,3.3-0.76c-0.36,1.46-2.12,2.98-3.95,3.39c-1.82,0.41-3.02-0.44-2.66-1.9
		c0.36-1.46,2.12-2.98,3.95-3.39c1.82-0.41,3.02,0.44,2.66,1.9C2161.74,866.03,2160.64,866.28,2159.54,866.53 M1593.07,228.94
		c54.91-62.33,134.31-115.15,217.66-140.77l-11.18,3.58c-75.3,25.17-146.65,72.39-198.34,128.17L1593.07,228.94 M1496.92,399.05
		c44.91-140.05,214.06-280.91,388.46-320.3c44.51-10.05,85.23-12.56,120.85-8.49l-6.62-0.73c-34.45-3.46-73.59-0.8-116.22,8.82
		c-171.55,38.74-337.98,176.4-384.35,314.16L1496.92,399.05 M1474.36,545.48c-0.03-17.95,2.3-37.03,7.18-57.11
		c40.71-167.55,243.18-341.64,452.23-388.85c86.28-19.48,160.2-14.31,214.39,10.27l-5.28-2.36
		c-220.53-91.09-650.34,147.85-668.51,432.25L1474.36,545.48 M1494.47,680.52c-10.16-33.83-10.71-73.24-0.06-117.06
		c44.06-181.31,263.17-369.71,489.39-420.8c121.76-27.5,220.77-9.61,279.37,41.04l-4.34-3.73c-58.66-49.51-156.76-66.79-277.16-39.6
		c-225.71,50.97-444.33,238.95-488.29,419.85c-10.41,42.85-10.09,81.46-0.54,114.76L1494.47,680.52 M1552.17,804.14
		c-27.92-42.64-36.46-98.59-20.51-164.22c45.2-186.01,269.98-379.28,502.05-431.69c151.29-34.17,268.34-0.03,318.97,79.41
		l-1.59-2.47l-1.62-2.49c-51.22-78.2-167.66-111.6-317.85-77.68c-232.08,52.41-456.85,245.68-502.05,431.69
		c-15.73,64.75-7.64,120.08,19.4,162.49l1.59,2.47L1552.17,804.14 M1642.82,906.84c-51.31-43.3-72.44-111.26-51.93-195.67
		c43.96-180.91,262.58-368.88,488.29-419.85c172.24-38.9,298.85,13.23,329.63,120.5l-1.63-5.53
		c-36.24-110.45-147.83-129.78-211.12-131.47c-334.66-8.93-777.3,413.1-557.57,628.28L1642.82,906.84 M1758.75,979.38
		c-157.98-75.09-108.88-259.93,17.53-395.72c225.19-241.9,638.74-303.06,650.99-36.65l0.02-5.78
		c-3.2-150.87-160.74-213.42-366.44-145.51c-315.72,104.23-545.58,457.5-307.36,581.3L1758.75,979.38 M2408.91,672.55
		c-1.76,7.24-3.87,14.49-6.31,21.74l2.13-6.52c1.94-6.04,3.64-12.08,5.11-18.11C2409.53,670.62,2409.22,671.59,2408.91,672.55
		 M2408.91,672.55c0.32-0.96,0.62-1.93,0.93-2.9c35.43-145.82-83.33-230.72-265.26-189.63S1786.44,672.62,1751,818.43
		c-26.77,110.14,34.45,185.53,144.41,198.12l6.62,0.73c-111.49-11.2-173.94-86.48-147.07-197.05
		c35.17-144.73,210.07-295.12,390.65-335.9S2444.08,527.82,2408.91,672.55 M2375.89,737.05c-10.78,44.34-37.93,89.35-75.46,129.85
		l8.16-9.04c34.23-38.86,58.93-81.41,69.13-123.38C2377.11,735.34,2376.51,736.2,2375.89,737.05 M2375.89,737.05
		c0.62-0.85,1.22-1.71,1.83-2.57c2.41-10.68,8.83-39.04,1.74-69.05c-40.41-171.04-385.08-85.99-505.21,124.66
		c-81.94,143.69,1.93,268.16,216.65,208.57l11.19-3.58c-27.05,8.39-90.41,28.05-153.6,14.67
		c-161.42-34.18-121.58-236.51,71.05-360.82C2198.2,533.63,2411.05,556.57,2375.89,737.05 M2322.33,792.58
		c0.9-0.71,1.79-1.42,2.67-2.14c20.15-82.9-47.37-131.17-150.81-107.81s-203.62,109.5-223.76,192.4
		c-20.15,82.9,47.37,131.17,150.81,107.81c103.44-23.36,203.62-109.5,223.76-192.4C2324.12,791.16,2323.23,791.88,2322.33,792.58
		c-19.77,81.34-118.06,165.85-219.54,188.77c-101.48,22.92-167.73-24.44-147.96-105.78s118.06-165.85,219.54-188.77
		C2275.85,663.89,2342.1,711.25,2322.33,792.58 M2249.49,836.64c1.16-0.53,2.32-1.06,3.47-1.6c10.68-43.94-25.11-69.53-79.94-57.15
		c-54.83,12.38-107.93,58.04-118.61,101.98c-10.68,43.94,25.11,69.53,79.94,57.15c54.83-12.38,107.93-58.04,118.61-101.98
		C2251.8,835.58,2250.65,836.11,2249.49,836.64c-10.26,42.2-61.26,86.06-113.91,97.95s-87.03-12.68-76.77-54.89
		c10.26-42.2,61.26-86.06,113.91-97.95S2259.74,794.44,2249.49,836.64 M1745.41,219.55c0.35-1.46-0.83-2.31-2.66-1.9
		c-1.82,0.41-3.59,1.93-3.94,3.39s0.83,2.31,2.66,1.9C1743.29,222.53,1745.05,221.02,1745.41,219.55c-1.1,0.24-2.2,0.49-3.31,0.74
		C1743.2,220.04,1744.31,219.8,1745.41,219.55 M1847.24,206.94c10.68-43.94-25.11-69.53-79.94-57.15
		c-54.83,12.38-107.93,58.04-118.61,101.98c-10.68,43.94,25.11,69.53,79.94,57.15C1783.45,296.54,1836.56,250.88,1847.24,206.94
		c-1.46,0.05-2.93,0.11-4.39,0.17c-10.26,42.2-61.26,86.06-113.91,97.95c-52.66,11.89-87.03-12.68-76.77-54.89
		s61.26-86.06,113.91-97.95c52.66-11.89,87.03,12.68,76.77,54.89C1844.31,207.05,1845.77,206.99,1847.24,206.94 M1951.22,211.78
		c20.15-82.9-47.37-131.17-150.81-107.81c-103.44,23.36-203.62,109.5-223.76,192.4c-20.15,82.9,47.37,131.17,150.81,107.81
		C1830.89,380.83,1931.07,294.69,1951.22,211.78c-1.47-0.19-2.94-0.37-4.41-0.54c-19.76,81.34-118.05,165.85-219.53,188.76
		c-101.48,22.92-167.72-24.44-147.96-105.78c19.77-81.34,118.05-165.85,219.53-188.76c101.48-22.92,167.72,24.44,147.96,105.78
		C1948.28,211.42,1949.75,211.6,1951.22,211.78 M1593.07,228.94c-34.23,38.86-58.94,81.42-69.14,123.39
		c-28.49,117.23,66.99,185.49,213.26,152.46s287.93-154.84,316.42-272.07c-1.42-0.4-2.84-0.8-4.26-1.2
		c-28.16,115.88-168.2,236.29-312.78,268.94c-144.59,32.65-238.97-34.82-210.81-150.71c10.78-44.34,37.93-89.35,75.46-129.85
		L1593.07,228.94 M2053.6,232.72c28.49-117.23-66.99-185.49-213.26-152.46c-9.9,2.24-19.79,4.88-29.62,7.9l-11.18,3.58
		c12.91-4.31,25.93-7.98,38.99-10.93c144.59-32.65,238.97,34.82,210.81,150.71C2050.76,231.92,2052.18,232.32,2053.6,232.72
		 M1496.92,399.05c-1.94,6.04-3.64,12.08-5.11,18.12c-35.43,145.82,83.33,230.72,265.26,189.63
		c181.93-41.08,358.14-192.6,393.57-338.41c-1.32-0.6-2.64-1.2-3.96-1.79c-35.17,144.73-210.07,295.12-390.66,335.9
		c-180.58,40.78-298.46-43.49-263.29-188.23c1.76-7.24,3.87-14.49,6.31-21.74L1496.92,399.05 M2150.64,268.39
		c26.77-110.14-34.45-185.53-144.41-198.12l-6.62-0.73c111.49,11.2,173.94,86.48,147.07,197.05
		C2148,267.18,2149.32,267.78,2150.64,268.39 M1474.36,545.48c0.23,131.74,127.99,202.33,311.97,160.78
		c209.04-47.21,411.51-221.3,452.23-388.85c-1.16-0.78-2.33-1.56-3.5-2.33c-102.59,353.59-640.99,519.84-745.21,299.45
		c-14.16-29.95-14.92-55.9-15.47-74.85L1474.36,545.48 M2238.57,317.42c23.91-98.39-13.28-172.65-90.4-207.62l-5.28-2.36
		c78.25,34.39,116.21,108.78,92.18,207.65C2236.24,315.86,2237.4,316.64,2238.57,317.42 M1494.47,680.52
		c31.86,106.13,158.23,157.47,329.77,118.73c226.22-51.09,445.33-239.48,489.39-420.8c-0.95-0.94-1.91-1.88-2.87-2.81
		c-43.96,180.91-262.58,368.88-488.29,419.85c-172.25,38.9-298.85-13.23-329.63-120.5L1494.47,680.52 M2313.63,378.45
		c20.35-83.72-0.19-151.3-50.47-194.75l-4.34-3.73c51.31,43.3,72.44,111.26,51.93,195.67
		C2311.72,376.58,2312.68,377.51,2313.63,378.45 M1550.55,801.65l1.62,2.49c51.22,78.2,167.66,111.6,317.85,77.68
		c232.08-52.41,456.85-245.68,502.05-431.69c-0.34-0.54-0.69-1.08-1.04-1.62s-0.7-1.08-1.05-1.62
		c-45.2,186.01-269.98,379.28-502.05,431.69c-151.29,34.17-268.34,0.03-318.97-79.41L1550.55,801.65 M2371.04,448.51
		c0.35,0.54,0.7,1.08,1.04,1.62c15.73-64.75,7.64-120.08-19.4-162.49l-1.59-2.47l-1.62-2.49c27.92,42.64,36.46,98.59,20.51,164.22
		C2370.34,447.43,2370.69,447.97,2371.04,448.51 M1642.82,906.84c58.66,49.51,156.76,66.79,277.16,39.6
		c225.71-50.97,444.33-238.95,488.29-419.85c-0.34-1.08-0.68-2.15-1.03-3.23c-89.09,307.06-563.28,541.3-768.76,379.75
		L1642.82,906.84 M2408.26,526.59c10.41-42.85,10.09-81.47,0.54-114.77l-1.63-5.53c10.35,44.41,10.36,66.29,0.06,117.07
		C2407.58,524.44,2407.93,525.51,2408.26,526.59 M1758.75,979.38c53.74,23.62,126.49,28.38,211.21,9.24
		c208.09-46.99,409.63-220.29,450.16-387.06c0-1.04-0.01-2.07-0.03-3.11c-40.71,167.55-243.18,341.64-452.23,388.84
		c-86.28,19.48-160.2,14.31-214.39-10.27L1758.75,979.38 M2420.12,601.56c6.37-32.69,6.62-33.97,7.14-54.54l0.02-5.78
		c-1.51,28.97-1.7,32.7-7.18,57.21C2420.11,599.49,2420.12,600.52,2420.12,601.56 M1902.03,1017.27
		c34.45,3.46,73.59,0.8,116.22-8.82c171.55-38.74,337.98-176.4,384.35-314.16l2.13-6.52c-44.91,140.05-214.06,280.91-388.46,320.3
		c-44.51,10.05-85.23,12.56-120.85,8.49L1902.03,1017.27 M2102.09,995.07c54.33-19.75,125.97-52.16,198.34-128.17l8.16-9.04
		c-25.57,27.58-93.48,100.82-217.69,140.79L2102.09,995.07"/>
</g>
</svg>
