<?xml version="1.0" encoding="utf-8"?>
<!-- Generator: Adobe Illustrator 25.4.1, SVG Export Plug-In . SVG Version: 6.00 Build 0)  -->
<svg version="1.1" id="Layer_1" xmlns="http://www.w3.org/2000/svg" xmlns:xlink="http://www.w3.org/1999/xlink" x="0px" y="0px"
	 viewBox="0 0 476.7 121.3" style="enable-background:new 0 0 476.7 121.3;" xml:space="preserve">
<style type="text/css">
	.st0{fill:#D6F1E5;}
</style>
<g id="bscscan-logo" transform="translate(-219.378 -213.334)">
	<g id="bscscan-logo-circle">
		<path id="Path_1" class="st0" d="M244.6,271.1c0-2.8,2.3-5.1,5.1-5.1c0,0,0,0,0,0l8.6,0c2.8,0,5.2,2.3,5.2,5.2l0,0v32.4
			c1-0.3,2.2-0.6,3.6-0.9c1.9-0.5,3.3-2.2,3.3-4.2v-40.2c0-2.8,2.3-5.2,5.2-5.2h8.6c2.8,0,5.2,2.3,5.2,5.2v37.3c0,0,2.1-0.9,4.2-1.8
			c1.6-0.7,2.6-2.2,2.6-4v-44.5c0-2.8,2.3-5.2,5.1-5.2h8.6c2.8,0,5.1,2.3,5.1,5.2V282c7.4-5.4,15-11.9,21-19.7
			c1.8-2.3,2.3-5.3,1.3-8.1c-11-31.6-45.6-48.4-77.2-37.4c-31.6,11-48.4,45.6-37.4,77.2c1.2,3.6,2.8,7,4.7,10.3
			c1.5,2.6,4.3,4.1,7.3,3.8c1.6-0.1,3.6-0.3,6.1-0.6c2.2-0.2,3.8-2.1,3.8-4.3L244.6,271.1"/>
		<path id="Path_2" class="st0" d="M244.4,323.1c27.1,19.7,65,13.7,84.7-13.4c7.5-10.4,11.6-22.9,11.6-35.7c0-1.4-0.1-2.8-0.2-4.2
			C318.4,302.9,277.5,318.4,244.4,323.1"/>
	</g>
	<path id="Path_87" class="st0" d="M393,272.9c3.3,0.6,6.2,2.3,8.3,4.9c2.1,2.5,3.2,5.7,3.2,9c0,4.7-1.6,8.4-4.7,11.2
		S392,302,386,302h-22.5v-56.5h22.1c5.7,0,10,1.3,13,3.8c3,2.5,4.5,6,4.5,10.4c0.1,3.1-0.8,6.2-2.8,8.7
		C398.4,270.7,395.8,272.2,393,272.9z M372.6,269.8h11.3c3.2,0,5.6-0.7,7.3-2.2c1.7-1.6,2.7-3.9,2.5-6.2c0.1-2.3-0.8-4.6-2.5-6.2
		c-1.7-1.5-4.2-2.2-7.6-2.2h-11V269.8z M384.2,294.5c3.5,0,6.1-0.8,8-2.4c1.9-1.6,3-4.1,2.8-6.6c0.1-2.5-0.9-5-2.9-6.6
		c-1.9-1.6-4.6-2.4-8.1-2.4h-11.4v18H384.2z M427.4,257.4c5.2,0,9.3,1.3,12.4,4c3.2,2.7,5.2,6.5,5.7,10.6H437
		c-0.3-2.2-1.4-4.3-3.1-5.8c-1.9-1.5-4.3-2.3-6.7-2.2c-1.9-0.1-3.8,0.5-5.3,1.6c-1.3,1.1-2,2.8-1.9,4.4c-0.1,1.3,0.4,2.5,1.4,3.4
		c1,0.9,2.1,1.6,3.4,2c1.9,0.6,3.8,1.2,5.8,1.6c2.7,0.6,5.4,1.4,8,2.3c2.1,0.8,3.9,2.1,5.3,3.8c1.6,2,2.3,4.5,2.2,7.1
		c0.1,3.5-1.5,6.8-4.2,9c-2.8,2.3-6.6,3.4-11.3,3.4c-5.5,0-9.9-1.3-13.3-3.8c-3.4-2.6-5.6-6.5-6.1-10.7h8.9c0.2,2.3,1.4,4.4,3.2,5.8
		c2.1,1.6,4.7,2.4,7.4,2.2c1.9,0.1,3.7-0.5,5.2-1.7c1.2-1.1,1.9-2.7,1.9-4.4c0.1-1.4-0.5-2.7-1.4-3.7c-1-1-2.3-1.7-3.6-2.1
		c-1.9-0.6-3.9-1.2-5.9-1.6c-2.6-0.6-5.2-1.3-7.8-2.2c-2-0.7-3.8-2-5.1-3.6c-1.5-2-2.3-4.4-2.1-6.8c-0.1-3.5,1.5-6.9,4.2-9.1
		C418.6,258.5,422.5,257.4,427.4,257.4z M474.8,257.4c5.7,0,10.4,1.5,14.2,4.5c3.8,3.1,6.3,7.5,7,12.3h-9.7
		c-0.4-2.6-1.8-4.9-3.9-6.5c-2.2-1.6-5-2.5-7.7-2.4c-3.3-0.1-6.5,1.3-8.8,3.7c-2.3,2.5-3.5,6.1-3.5,10.9c0,4.8,1.2,8.5,3.5,11
		c2.3,2.5,5.5,3.8,8.8,3.8c2.8,0.1,5.5-0.7,7.7-2.4c2.1-1.6,3.5-4,3.9-6.6h9.7c-0.7,4.8-3.2,9.2-7,12.3c-3.7,3-8.5,4.6-14.2,4.6
		c-3.9,0.1-7.8-0.9-11.3-2.7c-3.3-1.8-6-4.5-7.7-7.8c-1.9-3.7-2.9-7.9-2.8-12.1c-0.1-4.2,0.9-8.3,2.8-12c1.8-3.3,4.4-6,7.7-7.8
		C467,258.2,470.9,257.3,474.8,257.4z M541.8,287c0,2.7-0.7,5.4-2,7.7c-1.4,2.5-3.5,4.4-6.1,5.7c-3.1,1.5-6.5,2.3-10,2.2
		c-3.5,0.1-7.1-0.6-10.3-2c-2.9-1.2-5.4-3.2-7.3-5.7c-1.8-2.5-2.9-5.4-3.1-8.5h9.8c0.3,2.4,1.4,4.7,3.2,6.3c2,1.8,4.7,2.8,7.4,2.6
		c2.4,0.1,4.7-0.7,6.4-2.2c1.5-1.5,2.4-3.6,2.3-5.8c0.1-1.8-0.5-3.6-1.7-5c-1.1-1.3-2.6-2.4-4.2-3.1c-1.7-0.7-3.9-1.6-6.8-2.6
		c-2.9-0.9-5.8-2-8.6-3.4c-2.2-1.1-4.2-2.8-5.6-4.9c-1.6-2.5-2.5-5.4-2.3-8.4c-0.1-2.8,0.7-5.6,2.2-8c1.6-2.4,3.8-4.2,6.4-5.3
		c3-1.3,6.3-1.9,9.6-1.9c5.8,0,10.3,1.4,13.7,4.2c3.3,2.7,5.4,6.6,5.8,10.9h-9.8c-0.4-2.1-1.4-4-3-5.5c-1.8-1.6-4.2-2.4-6.7-2.3
		c-2.2-0.1-4.4,0.6-6.2,2c-1.6,1.4-2.5,3.5-2.3,5.6c-0.1,1.7,0.5,3.4,1.6,4.8c1.1,1.3,2.5,2.3,4,3c1.6,0.7,3.9,1.6,6.7,2.5
		c3,0.9,5.9,2,8.8,3.4c2.3,1.2,4.3,2.9,5.8,5C541.2,280.9,542,283.9,541.8,287z M570.6,257.4c5.7,0,10.4,1.5,14.2,4.5
		c3.8,3.1,6.3,7.5,7,12.3H582c-0.4-2.6-1.8-4.9-3.9-6.5c-2.2-1.6-5-2.5-7.7-2.4c-3.3-0.1-6.5,1.3-8.8,3.7c-2.3,2.5-3.5,6.1-3.5,10.9
		c0,4.8,1.2,8.5,3.5,11c2.3,2.5,5.5,3.8,8.8,3.8c2.8,0.1,5.5-0.7,7.7-2.4c2.1-1.6,3.5-4,3.9-6.6h9.7c-0.7,4.8-3.2,9.2-7,12.3
		c-3.7,3-8.5,4.6-14.2,4.6c-3.9,0.1-7.8-0.9-11.3-2.7c-3.3-1.8-6-4.5-7.7-7.8c-1.9-3.7-2.9-7.9-2.8-12.1c-0.1-4.2,0.9-8.3,2.8-12
		c1.8-3.3,4.4-6,7.7-7.8C562.7,258.2,566.6,257.3,570.6,257.4z M618.2,257.4c3.6-0.1,7.2,0.9,10.2,3c2.8,1.9,4.9,4.7,6,7.8v-10.2
		h9.1V302h-9.1v-10.2c-1.1,3.2-3.2,5.9-6,7.8c-3,2-6.6,3.1-10.2,3c-3.6,0.1-7.2-0.9-10.3-2.7c-3.1-1.9-5.5-4.6-7.1-7.8
		c-1.8-3.8-2.7-7.9-2.6-12.1c-0.1-4.1,0.8-8.3,2.6-12c1.6-3.2,4-6,7.1-7.8C611,258.2,614.5,257.3,618.2,257.4z M621,265.4
		c-3.6-0.2-7.2,1.2-9.7,3.9c-2.4,2.6-3.6,6.1-3.6,10.7c0,4.5,1.2,8.1,3.6,10.7c2.5,2.6,6.1,4,9.7,3.9c2.4,0,4.8-0.6,6.9-1.8
		c2-1.2,3.7-3,4.8-5.1c1.2-2.4,1.8-5,1.8-7.7c0.1-2.7-0.6-5.3-1.8-7.6c-1.1-2.1-2.8-3.9-4.8-5.1C625.8,265.9,623.4,265.3,621,265.4z
		 M679.1,257.2c5.1,0,9.2,1.7,12.3,5c3.1,3.3,4.6,8,4.6,14.2V302H687v-24.7c0-3.9-1-7-3-9.2c-2.2-2.2-5.2-3.4-8.3-3.2
		c-3.3-0.1-6.4,1.1-8.7,3.5c-2.2,2.3-3.3,5.7-3.3,10.2V302h-9.1v-44.1h9.1v9.7c1.1-3.2,3.1-5.9,5.9-7.7
		C672.4,258.1,675.7,257.1,679.1,257.2z"/>
</g>
</svg>
