<?xml version="1.0" encoding="utf-8"?>
<!-- Generator: Adobe Illustrator 25.4.1, SVG Export Plug-In . SVG Version: 6.00 Build 0)  -->
<svg version="1.1" id="layer" xmlns="http://www.w3.org/2000/svg" xmlns:xlink="http://www.w3.org/1999/xlink" x="0px" y="0px"
	 viewBox="0 0 603.8 103.2" style="enable-background:new 0 0 603.8 103.2;" xml:space="preserve">
<style type="text/css">
	.st0{fill:#D6F1E5;}
</style>
<g>
	<path class="st0" d="M91.1,61.7c-1.8,1.1-3.9,1.3-5.5,0.4c-2-1.2-3.2-3.9-3.2-7.6V43.2c0-5.4-2.1-9.3-5.7-10.3
		c-6.1-1.8-10.7,5.7-12.4,8.5L53.5,58.7V37.4c-0.1-4.9-1.7-7.8-4.7-8.7c-2-0.6-5-0.3-7.9,4.1L16.8,71.4c-3.2-6.1-4.9-12.9-4.9-19.8
		c0-23.3,18.7-42.2,41.6-42.2s41.6,18.9,41.6,42.2v0.1v0.1C95.3,56.3,93.9,59.9,91.1,61.7L91.1,61.7z M104.3,51.6L104.3,51.6v-0.1
		v-0.1C104.2,23.1,81.4,0,53.5,0C25.5,0,2.7,23.1,2.7,51.6c0,28.4,22.8,51.6,50.8,51.6c12.9,0,25.1-4.9,34.5-13.8
		c1.9-1.8,2-4.7,0.2-6.6c-1.7-1.9-4.6-2-6.5-0.3c0,0,0,0-0.1,0.1C74,89.8,63.8,93.9,53.3,93.9c-12.3,0-23.3-5.4-30.9-14l21.7-34.8
		v16.1c0,7.7,3,10.2,5.5,10.9c2.5,0.7,6.3,0.2,10.4-6.3l11.9-19.3c0.4-0.6,0.7-1.2,1.1-1.6v9.8c0,7.2,2.9,13,7.9,15.8
		c4.5,2.6,10.2,2.3,14.9-0.6C101.6,66.1,104.7,59.5,104.3,51.6z M175.1,34c1.2,0.7,2.3,2.4,2.3,3.9c0,2.4-2,4.4-4.3,4.4
		c-0.6,0-1.1-0.2-1.6-0.3c-2.7-2-6.1-3.3-9.7-3.3c-8.5,0-14.3,6.9-14.3,15.5s5.9,15.4,14.3,15.4c4.2,0,8-1.7,10.8-4.4
		c0.7-0.5,1.6-0.8,2.5-0.8c2.3,0,4.1,1.8,4.1,4.1c0,1.5-0.9,2.8-2,3.5c-4.1,3.5-9.6,5.8-15.3,5.8c-13,0-23.6-10.7-23.6-23.9
		S148.9,30,161.9,30C166.7,29.9,171.3,31.4,175.1,34z M198.9,44c8.9,0,16.3,7.5,16.3,16.8c0,9.2-7.5,17.1-16.3,17.1
		c-9.3,0-17-7.8-17-17.1C181.9,51.5,189.6,44,198.9,44z M198.8,69.6c3.9,0,7.2-3.7,7.2-8.7s-3.3-8.2-7.2-8.2c-4.2,0-7.7,3.1-7.7,8.2
		C191.1,65.8,194.6,69.6,198.8,69.6z M220.8,72.7V49.1c0-2.6,2-4.7,4.6-4.7c2.5,0,4.6,2.1,4.6,4.7v23.6c0,2.6-2.1,4.7-4.6,4.7
		S220.8,75.2,220.8,72.7z M220.1,35.5c0-3.1,2.4-5.5,5.3-5.5c3,0,5.4,2.5,5.4,5.5s-2.4,5.4-5.4,5.4
		C222.4,40.8,220.1,38.4,220.1,35.5z M247.6,59.9v12.8c0,2.6-2.1,4.7-4.6,4.7s-4.6-2.1-4.6-4.7V48c0-2,1.6-3.6,3.6-3.6
		s3.5,1.7,3.5,3.6c3.7-3.5,7-4,10.1-4c9.2,0,13.3,6.9,13.3,14.8v13.9c0,2.6-2.1,4.7-4.6,4.7s-4.6-2.1-4.6-4.7V59.9
		c0-4-0.5-7.4-6.3-7.4C249.3,52.5,247.6,55.9,247.6,59.9L247.6,59.9z M298.7,64.8c-1.1,0-1.8-0.5-2.4-1.2L285.6,52v20.7
		c0,2.6-2.1,4.7-4.6,4.7s-4.6-2.1-4.6-4.7v-41c0.3-0.7,1-1.2,1.7-1.2c0.8,0,1.5,0.7,2,1.2l17.1,19.2c0.5,0.6,1.1,0.9,1.5,0.9
		c0.3,0,1-0.3,1.5-0.9l17.1-19.2c0.5-0.5,1.1-1.2,2-1.2c0.8,0,1.5,0.5,1.7,1.2v41c0,2.6-2,4.7-4.6,4.7c-2.5,0-4.6-2.1-4.6-4.7V52
		l-10.7,11.6C300.3,64.3,299.6,64.8,298.7,64.8L298.7,64.8z M342.9,69.6c4.1,0,7.6-3.7,7.6-8.7s-3.6-8.3-7.6-8.3s-7.3,3.4-7.3,8.3
		C335.6,65.7,338.8,69.6,342.9,69.6z M352.7,73.8l-0.2-1.1c-1.8,3.5-7.5,5.1-11.1,5.1c-8.6,0-15-7.8-15-17.1
		c0-9.2,6.5-16.8,15.5-16.8c1.5,0,6.7,0.4,10.7,5.1l0.2-1.1c0-2,1.5-3.6,3.5-3.6s3.6,1.7,3.6,3.6v25.8c0,2-1.6,3.6-3.6,3.6
		C354.2,77.4,352.7,75.7,352.7,73.8L352.7,73.8z M385.2,52.5h-1c-5.8,0.3-6.9,3.6-6.9,7.4v12.8c0,2.6-2.1,4.7-4.6,4.7
		s-4.6-2.1-4.6-4.7V48c0-2,1.6-3.6,3.6-3.6s3.5,1.7,3.5,3.6c3.4-3.2,6.2-3.9,9-4h0.9c2.2,0,4.2,1.9,4.2,4.3
		C389.4,50.5,387.4,52.5,385.2,52.5L385.2,52.5z M420.7,70.5c0.4,0.7,0.7,1.4,0.7,2.2c0,2.4-2.2,4.6-4.6,4.6c-1.6,0-3-1.2-4.1-2.6
		l-10.6-12.3v10.2c0,2.6-2.1,4.7-4.6,4.7s-4.6-2.1-4.6-4.7V35.1c0-2.6,2-4.7,4.6-4.7s4.6,2.1,4.6,4.7v23.4l10.6-11.7
		c1.1-1.2,2.4-2.5,4-2.5c2.3,0,4.4,2.1,4.4,4.5c0,0.7-0.2,1.5-0.6,2.1l-8.4,9.2L420.7,70.5L420.7,70.5z M438.7,52.6
		c-2.5,0-6.6,1.3-6.6,5.2h13.3C445.3,53.9,441.1,52.6,438.7,52.6L438.7,52.6z M450.7,63.7h-18.6c0,5.5,5.3,6.4,7.6,6.4
		c1.7,0,4.1-0.3,6-1.2c0.6-0.4,1.5-0.7,2.4-0.7c2,0,3.7,1.7,3.7,3.8c0,1.4-0.9,2.6-2,3.3c-2.8,2.1-6.5,2.6-10,2.6
		c-9.3,0-17-5-17-16.7c0-9.2,4.7-17.2,15.7-17.2c8.9,0,15.6,5.8,15.8,16.1C454.3,62,452.7,63.7,450.7,63.7L450.7,63.7z M476.3,77.8
		h-2.5c-7,0-11.1-3.1-11.1-14V52.5h-2.4c-2.2,0-4.1-2-4.1-4.2c0-2.4,2-4.3,4.1-4.3h2.4v-8.7c0-2.6,2-4.7,4.6-4.7
		c2.5,0,4.6,2.1,4.6,4.7V44h3.8c2.2,0,4.1,1.9,4.1,4.3c0,2.2-2,4.2-4.1,4.2h-3.8V62c0,6.3,0.3,7.6,3.1,7.6h1.3
		c2.2,0,4.1,1.8,4.1,4.1C480.4,75.9,478.5,77.8,476.3,77.8L476.3,77.8z M520.8,34c1.2,0.7,2.3,2.4,2.3,3.9c0,2.4-2,4.4-4.3,4.4
		c-0.6,0-1.1-0.2-1.6-0.3c-2.7-2-6.1-3.3-9.7-3.3c-8.5,0-14.3,6.9-14.3,15.5s5.9,15.4,14.3,15.4c4.2,0,8-1.7,10.8-4.4
		c0.7-0.5,1.6-0.8,2.5-0.8c2.3,0,4.1,1.8,4.1,4.1c0,1.5-0.9,2.8-2,3.5c-4.1,3.5-9.6,5.8-15.3,5.8c-13,0-23.6-10.7-23.6-23.9
		S494.6,30,507.6,30C512.4,29.9,517.1,31.4,520.8,34L520.8,34z M544.1,69.6c4.1,0,7.6-3.7,7.6-8.7s-3.6-8.3-7.6-8.3
		c-4.1,0-7.3,3.4-7.3,8.3C536.8,65.7,540.1,69.6,544.1,69.6L544.1,69.6z M553.9,73.8l-0.2-1.1c-1.8,3.5-7.5,5.1-11.1,5.1
		c-8.6,0-15-7.8-15-17.1c0-9.2,6.5-16.8,15.5-16.8c1.5,0,6.7,0.4,10.7,5.1l0.2-1.1c0-2,1.5-3.6,3.5-3.6s3.6,1.7,3.6,3.6v25.8
		c0,2-1.6,3.6-3.6,3.6C555.4,77.4,553.9,75.7,553.9,73.8z M586.2,69.6c4.1,0,7.3-3.9,7.3-8.7c0-5-3.3-8.3-7.3-8.3
		c-4.1,0-7.6,3.3-7.6,8.3S582.1,69.6,586.2,69.6z M578.6,75.1v11.7c0,2.6-2.1,4.7-4.6,4.7s-4.6-2.1-4.6-4.7V48c0-2,1.6-3.6,3.6-3.6
		s3.5,1.7,3.5,4c3.4-3.5,7.6-4.4,10.8-4.4c8.9,0,15.5,7.5,15.5,16.8c0,9.2-6.3,17.1-15,17.1C585.1,77.8,581.1,77,578.6,75.1
		L578.6,75.1z"/>
</g>
</svg>
