<?xml version="1.0" encoding="utf-8"?>
<!-- Generator: Adobe Illustrator 25.4.1, SVG Export Plug-In . SVG Version: 6.00 Build 0)  -->
<svg version="1.1" id="katman_1" xmlns="http://www.w3.org/2000/svg" xmlns:xlink="http://www.w3.org/1999/xlink" x="0px" y="0px"
	 viewBox="0 0 285.1 82" style="enable-background:new 0 0 285.1 82;" xml:space="preserve">
<style type="text/css">
	.st0{fill-rule:evenodd;clip-rule:evenodd;fill:#D6F1E5;}
	.st1{fill-rule:evenodd;clip-rule:evenodd;fill:#EAF4EF;}
	.st2{fill-rule:evenodd;clip-rule:evenodd;fill:#FCFDFB;}
	.st3{fill-rule:evenodd;clip-rule:evenodd;fill:#B6D6C5;}
	.st4{fill-rule:evenodd;clip-rule:evenodd;fill:#A9ACBF;}
	.st5{fill-rule:evenodd;clip-rule:evenodd;fill:#FFFEFC;}
</style>
<g>
	<path class="st0" d="M41.6,2.8c21.2,0,38.3,17.1,38.3,38.4c0,21-17.3,38.3-38.6,38.2C20.7,79.2,3.4,62.2,3.4,41.1
		C3.4,19.9,20.4,2.7,41.6,2.8z M12.5,61.1c0,0.4,0.2,0.6,0.4,0.9c1.5,2.1,3.2,4.1,5.2,5.8c0.9,0.8,1.8,1.6,2.8,2.3
		c2.8,1.8,5.7,3.5,8.9,4.6c2.6,0.9,5.3,1.6,8,1.9c2.1,0.2,4.3,0.3,6.4,0c1.2-0.2,2.5-0.2,3.7-0.7c0.2,0.1,0.3-0.1,0.4-0.1
		c2.5-0.4,4.9-1.2,7.3-2.2c7.8-3.4,13.7-8.9,17.5-16.5c3.4-6.7,4.5-13.8,3.4-21.2c-1-7.1-4-13.3-8.8-18.5
		C61.3,10.1,53.1,6.3,43.4,5.7C39.1,5.4,34.8,6,30.7,7.4C24,9.6,18.5,13.4,14,18.9c-5.1,6.3-7.6,13.5-7.9,21.5
		c-0.1,2,0.1,3.9,0.4,5.9c0.6,4.5,2.1,8.8,4.4,12.7C11.5,59.6,11.9,60.4,12.5,61.1z"/>
	<path class="st0" d="M47.9,75.8c-1.2,0.6-2.5,0.6-3.7,0.7c-2.1,0.3-4.3,0.2-6.4,0c-2.7-0.3-5.4-1-8-1.9c-3.2-1.1-6.1-2.8-8.9-4.6
		c-1-0.7-1.9-1.5-2.8-2.3c-2-1.7-3.7-3.7-5.2-5.8c-0.2-0.3-0.4-0.6-0.4-0.9c2.4-5.4,3.3-11.1,3.8-16.9c0.2-2.7,0.3-5.4,0.8-8.1
		c0.5-3.1,1.7-5.9,3.9-8.3c2-2.1,4.5-3.5,7.2-4.5c2.2-0.9,4.5-1.7,7-1.8c2.3-0.1,4.5,0.2,6.7,0.7c3.3,0.8,6.6,1.8,9.7,3.3
		c2.5,1,5.1,2,7.7,2.8c2.7,0.8,5.4,1.7,7.7,3.4c2.9,2.2,3.7,5,2.4,8.4c-0.8,2.1-2.3,3.7-3.8,5.3c-2.7,2.8-5.6,5.4-8.2,8.3
		c-3,3.5-5.7,7.1-7.6,11.3C48.2,68.4,47.3,72,47.9,75.8L47.9,75.8z M67.2,42.9c-0.1,0-0.2,0-0.3,0.1c-0.1,0-0.2,0.1-0.2,0.2
		c0,0,0,0,0,0.1c0.1,0,0.2-0.1,0.2-0.2L67.2,42.9C67.3,42.9,67.4,42.9,67.2,42.9C67.3,42.8,67.2,42.9,67.2,42.9z M36.6,25.5
		c-3.8,0-6.9,3.1-6.9,6.8c0,3.8,3.1,6.8,6.8,6.9c3.8,0,6.8-3.1,6.9-6.9C43.4,28.5,40.4,25.5,36.6,25.5L36.6,25.5L36.6,25.5z
		 M42.2,46.5c0.6,0.9,1.7,1.7,3,2.1c2.6,0.9,5.2,0.9,7.8,0.4c4.6-0.9,8.9-2.5,12.8-5.1c0.2-0.2,0.6-0.2,0.7-0.6
		c-0.2-0.1-0.3,0-0.4,0.1c-1.3,0.8-2.7,1.4-4.1,2c-3.6,1.5-7.4,2.5-11.4,2.7C47.7,48.3,44.8,48.1,42.2,46.5z M61.1,40.6
		c0.8,0,1.5-0.7,1.5-1.6c0-0.8-0.7-1.5-1.6-1.4c-0.8,0-1.4,0.7-1.4,1.5C59.6,40,60.2,40.6,61.1,40.6z"/>
	<path class="st1" d="M41.8,22.1c-2.2-0.4-4.4-0.8-6.7-0.7c-2.5,0.1-4.7,0.9-7,1.8c-2.7,1-5.2,2.4-7.2,4.5C18.7,30,17.5,32.8,17,36
		c-0.4,2.7-0.5,5.4-0.8,8.1c-0.5,5.8-1.4,11.6-3.8,16.9c-0.7-0.6-1.1-1.5-1.5-2.2c-2.3-3.9-3.8-8.2-4.4-12.7c-0.3-2-0.5-3.9-0.4-5.9
		c0.3-8,2.8-15.2,7.9-21.5c4.4-5.5,10-9.3,16.7-11.5c4.1-1.3,8.4-1.9,12.7-1.7C53,6.1,61.2,10,67.7,17.1c4.8,5.3,7.7,11.5,8.8,18.5
		c1.1,7.4,0,14.5-3.4,21.2c-3.8,7.6-9.7,13.1-17.5,16.5c-2.3,1-4.7,1.8-7.3,2.2c-0.2,0-0.3,0.3-0.4,0.1c-0.6-3.8,0.3-7.4,1.8-10.9
		c1.9-4.2,4.6-7.8,7.6-11.3c2.5-2.9,5.4-5.6,8.2-8.3c1.6-1.6,3-3.2,3.8-5.3c1.4-3.4,0.6-6.2-2.4-8.4c-2.3-1.7-5-2.6-7.7-3.4
		c-2.6-0.8-5.2-1.8-7.7-2.8c-0.5-1.7-1.7-2.8-3.3-3.4C46.1,21.3,44,21.5,41.8,22.1z M74.5,43.4h0.2c0.4-1.4,0.4-2.9,0.4-4.4
		c0-1.7-0.2-3.4-0.5-5.1c-1.1-5.5-3.6-10.3-7.5-14.4c-2.4-2.5-5.1-4.6-7.8-6.8c-2.4-2-5-3.5-8-4.3c-2.9-0.7-5.7-1.1-8.7-0.6
		c-0.2,0-0.4,0-0.4,0.2s0.2,0.2,0.4,0.2C47,9,51.2,10.4,55.3,12c4,1.6,7.4,3.9,9.9,7.5c1.7,2.5,3.3,5.1,4.6,7.9
		c1.7,3.8,3,7.7,3.8,11.7C74,40.7,74.3,42,74.5,43.4z"/>
	<path class="st2" d="M36.6,25.5c3.8,0,6.8,3.1,6.8,6.8l0,0c0,3.8-3.1,6.8-6.9,6.9c-3.8,0-6.8-3.1-6.8-6.9
		C29.7,28.5,32.8,25.5,36.6,25.5L36.6,25.5z M41.4,32.4c0-2.7-2.1-4.8-4.8-4.8c-2.7,0-4.8,2.1-4.8,4.8c0,2.6,2.1,4.8,4.7,4.8h0.1
		C39.2,37.2,41.3,35.1,41.4,32.4L41.4,32.4L41.4,32.4z"/>
	<path class="st3" d="M42.2,46.5c2.6,1.6,5.5,1.8,8.4,1.7c4-0.2,7.8-1.1,11.4-2.7c1.4-0.6,2.8-1.2,4.1-2c0.1-0.1,0.2-0.2,0.4-0.1
		c-0.1,0.3-0.4,0.4-0.7,0.6c-3.9,2.6-8.2,4.2-12.8,5.1c-2.6,0.5-5.3,0.5-7.8-0.4C43.9,48.2,42.7,47.4,42.2,46.5L42.2,46.5z
		 M41.8,22.1c2.1-0.6,4.3-0.8,6.4,0c1.6,0.6,2.8,1.7,3.3,3.4C48.5,23.9,45.2,22.9,41.8,22.1z"/>
	<path class="st2" d="M61.1,40.6c-0.8,0-1.5-0.7-1.5-1.5s0.6-1.5,1.4-1.5s1.5,0.6,1.6,1.4C62.5,39.9,61.9,40.6,61.1,40.6z"/>
	<path class="st4" d="M66.9,43.1c0,0.1-0.1,0.2-0.2,0.2l0,0C66.7,43.1,66.8,43,66.9,43.1L66.9,43.1L66.9,43.1z M67.2,42.9l-0.3,0.2
		L66.8,43C67,42.9,67.1,42.9,67.2,42.9L67.2,42.9z"/>
	<path class="st4" d="M67.2,42.9L67.2,42.9C67.4,42.9,67.3,42.9,67.2,42.9L67.2,42.9z"/>
	<path class="st5" d="M74.5,43.4c-0.3-1.4-0.6-2.7-0.8-4.1c-0.8-4.1-2.2-8-3.8-11.7c-1.2-2.8-2.8-5.4-4.6-7.9
		c-2.5-3.6-5.8-5.9-9.9-7.5c-4.2-1.6-8.3-3.1-12.7-3.8c-0.2,0-0.4,0-0.4-0.2S42.5,8,42.7,8c2.9-0.5,5.8-0.2,8.7,0.6
		c3,0.8,5.6,2.4,8,4.3c2.7,2.2,5.4,4.3,7.8,6.8c3.9,4.1,6.4,8.9,7.5,14.4c0.3,1.7,0.5,3.4,0.5,5.1c0,1.4,0,2.9-0.4,4.4L74.5,43.4z"
		/>
	<path class="st3" d="M41.4,32.4c0,2.6-2.1,4.8-4.7,4.8h-0.1c-2.6,0-4.8-2.1-4.8-4.8v-0.1c0-2.7,2.2-4.8,4.8-4.8
		S41.4,29.7,41.4,32.4L41.4,32.4z"/>
	<path class="st0" d="M193.1,51.7c-0.1,0.1-0.2,0.1-0.3,0.2c-3.1,3.5-7,4.1-11.2,3c-5.2-1.3-8-5-9.1-10.1c-0.7-3.3-0.5-6.6,0.8-9.7
		c2.3-5.5,7.5-8.5,13.4-7.7c2.7,0.4,5.2,1.3,7.1,3.3c1.4,1.5,2.2,3.3,2.5,5.3c0.1,0.4-0.1,0.5-0.4,0.5c-1.2,0-2.5,0-3.7,0
		c-0.3,0-0.4-0.1-0.5-0.4c-0.6-2.7-2.4-4.2-5-4.7c-3-0.6-5.6,0-7.6,2.4c-1.8,2.2-2.3,4.9-2.3,7.7c0,2.1,0.4,4.1,1.3,5.9
		c2.1,4,7.3,5.4,11.2,3.1c2.2-1.3,2.9-3.4,3.1-5.8c0-0.5-0.3-0.4-0.6-0.4c-2,0-3.9,0-5.9,0c-0.6,0-0.7-0.2-0.7-0.7
		c0-0.8,0-1.5,0-2.3c0-0.5,0.2-0.6,0.6-0.6c3.4,0,6.9,0,10.3,0c0.4,0,0.6,0.1,0.6,0.5c0,4.4,0,8.7,0,13.1c0,0.4-0.1,0.5-0.5,0.5
		c-0.8,0-1.8,0.2-2.4-0.1c-0.6-0.4-0.4-1.4-0.6-2.2C193.2,52.2,193.1,51.9,193.1,51.7z M113.9,36.5c-0.6,0-1.2,0-1.9,0
		c-0.4,0-0.5-0.1-0.6-0.5c-0.8-2.8-2.6-4.5-5.5-4.8c-3.2-0.3-5.9,0.7-7.5,3.6c-2.4,4.4-2.3,8.9,0.1,13.2c1.6,2.9,5.1,4.2,8.3,3.3
		c2.8-0.8,4.1-2.9,4.7-5.6c0.2-1.1,0.2-1.1,1.3-1.1c1,0,2,0,3,0c0.4,0,0.5,0.1,0.4,0.5c-0.5,5.3-3.9,9.4-9.1,10.2
		c-7.5,1.2-13.7-3.4-14.9-10.9c-0.5-3.3-0.2-6.5,1.1-9.6c2.3-5.2,7.4-8,13.1-7.3c2.7,0.4,5.2,1.3,7.2,3.3c1.4,1.5,2.2,3.3,2.5,5.3
		c0.1,0.4,0,0.5-0.4,0.5C115.2,36.4,114.5,36.5,113.9,36.5z M261.1,54.7c-1.7,0-3.2,0-4.8,0c-0.4,0-0.6-0.2-0.7-0.5
		c-1.7-2.8-3.5-5.5-5.2-8.3c-0.3-0.5-0.4-0.5-0.9-0.1c-1.7,1.2-2.4,2.8-2.1,4.9c0.2,1.1,0,2.3,0,3.5c0,0.5-0.2,0.6-0.6,0.6
		c-1,0-2,0-3,0c-0.5,0-0.6-0.2-0.6-0.7c0-4.1,0-8.2,0-12.4c0-4.3,0-8.6,0-13c0-0.7,0.2-0.9,0.9-0.8c0.9,0.1,1.8,0.1,2.7,0
		c0.6,0,0.7,0.2,0.7,0.7c0,4.5,0,9,0,13.5v0.8l0.2,0.1c0.3-0.4,0.7-0.8,1-1.2c2-2.1,4-4.1,6.1-6.2c0.2-0.2,0.4-0.4,0.7-0.4
		c1.6,0,3.2,0,4.8,0c0,0.3-0.3,0.4-0.4,0.6c-2.1,2-4.1,4-6.3,6c-0.5,0.4-0.5,0.7-0.1,1.3c2.4,3.6,4.8,7.2,7.2,10.8
		C260.7,54.2,260.9,54.4,261.1,54.7L261.1,54.7z M211.7,46.1c-2.2,0-4.3,0-6.5,0c-0.5,0-0.6,0.1-0.6,0.6c0.2,3.9,3.8,6.3,7.4,4.8
		c1-0.4,1.8-1.2,2.2-2.3c0.2-0.5,0.5-0.6,0.9-0.6c0.9,0,1.9,0,2.8,0c0.5,0,0.6,0.1,0.4,0.6c-1.1,3.5-3.5,5.4-7.1,5.9
		c-3.2,0.5-6.2-0.2-8.5-2.6c-1.6-1.7-2.3-3.9-2.5-6.2c-0.2-2.8,0.2-5.5,2-7.9c2.3-3,5.4-4.1,9-3.5c3.8,0.7,6.1,3.1,7.2,6.7
		c0.4,1.3,0.5,2.6,0.4,4c0,0.5-0.2,0.6-0.6,0.6C216.1,46.1,213.9,46.1,211.7,46.1z M209.6,43.3c1.5,0,3,0,4.4,0
		c0.5,0,0.6-0.1,0.5-0.6c-0.4-2.6-2.3-4.5-4.8-4.6c-2.6-0.1-4.7,1.7-5.1,4.4c-0.1,0.5,0,0.7,0.6,0.7
		C206.7,43.3,208.1,43.3,209.6,43.3L209.6,43.3z M119.1,45c0-1.2,0.2-2.5,0.5-3.7c1.3-4.2,5-6.8,9.6-6.5c3.5,0.2,6.4,1.4,8.1,4.5
		c2,3.8,2,7.8-0.1,11.5c-1.9,3.5-5.2,4.6-9,4.4C122.5,54.9,119.1,51,119.1,45z M123.4,45c0,1.7,0.3,3.2,1.3,4.6c1.6,2.3,4.7,3,7,1.4
		c0.5-0.4,1-0.8,1.4-1.3c1.7-2.5,1.8-6.7,0-9.3c-2.1-3-6.5-3-8.5,0.1C123.7,41.8,123.4,43.4,123.4,45z M262.2,45.1
		c0-2.8,0.6-5.3,2.5-7.4c1.9-2.2,4.5-3,7.3-3s5.4,0.8,7.4,3c2.1,2.4,2.6,5.3,2.4,8.4c-0.1,1.1-0.3,2.2-0.7,3.2
		c-1.5,3.9-5.1,6.1-9.7,5.8c-5.4-0.3-8.8-3.8-9.1-9.2C262.3,45.7,262.2,45.3,262.2,45.1L262.2,45.1z M277.5,45.3
		c0-2-0.5-3.7-1.2-4.9c-1.5-2.4-4.7-3-7-1.5c-0.6,0.4-1.1,0.9-1.5,1.5c-1.7,2.5-1.6,6.7,0,9.1c1.6,2.3,4.7,3,7,1.4
		c0.6-0.4,1-0.8,1.4-1.4C277.2,48.2,277.5,46.6,277.5,45.3z M155.3,38c1.2-1.5,2.6-2.6,4.5-3.1c1.7-0.4,3.4-0.3,5,0.4
		c2.4,1,3.4,3.1,3.5,5.6c0.1,4.4,0,8.8,0,13.2c0,0.5-0.1,0.6-0.6,0.6c-1,0-2,0-3,0c-0.5,0-0.7-0.1-0.7-0.7c0-3.7,0-7.5,0-11.2
		c0-0.8-0.1-1.6-0.3-2.3c-0.6-2-2.5-2.8-4.8-2.2c-2,0.6-3.3,2.4-3.3,4.7c0,3.6,0,7.3,0,10.9c0,0.6-0.1,0.9-0.8,0.8
		c-0.9-0.1-1.9-0.1-2.8,0c-0.5,0-0.7-0.1-0.7-0.7c0-2.8,0-5.5,0-8.3c0-3.2,0-6.4,0-9.6c0-0.7,0.2-0.9,0.9-0.8c0.9,0.1,1.7,0,2.6,0
		c0.5,0,0.7,0.1,0.6,0.6C155.3,36.6,155.3,37.3,155.3,38L155.3,38z M237.3,41.8c-0.1,0-0.2,0-0.3,0c-1.1,0.1-1.8,0-2.3-1.3
		c-1.2-3-6-3.1-8-0.3c-0.7,0.9-1,2-1.2,3.2c-0.2,1.9-0.2,3.8,0.6,5.6c1,2.2,2.8,3.2,5.1,2.9c1.9-0.3,3.2-1.5,3.7-3.6
		c0.1-0.6,0.4-0.8,1-0.7c1,0,1.9,0,2.9,0c0.5,0,0.6,0.2,0.5,0.6c-1,4.8-4.4,7.5-9.4,7.2s-8.3-3.6-8.7-8.7c-0.2-2.2,0-4.4,0.9-6.5
		c1.5-3.5,4.9-5.5,8.9-5.3c2.4,0.1,4.6,0.7,6.4,2.4c1.1,1.1,1.7,2.5,2,4c0.1,0.5-0.1,0.7-0.6,0.6C238.4,41.8,237.9,41.8,237.3,41.8z
		 M146.6,45.1c0,2.9,0,5.8,0,8.7c0,0.8-0.2,1-0.9,0.9c-0.9-0.1-1.7-0.1-2.6,0c-0.6,0-0.8-0.1-0.8-0.8c0-5.2,0-10.4,0-15.6
		c0-0.8,0-1.6,0-2.4c0-0.5,0.1-0.6,0.6-0.6c1,0,2,0,3,0c0.6,0,0.8,0.1,0.8,0.8C146.6,39.1,146.6,42.1,146.6,45.1z M144.6,27.9
		c0.6,0.1,1.5-0.3,1.9,0.1s0.1,1.3,0.1,2c0,0.6,0.3,1.4-0.1,1.8c-0.4,0.4-1.2,0.1-1.8,0.1c-0.8,0-1.8,0.3-2.3-0.1
		c-0.4-0.5-0.1-1.5-0.1-2.2c0-1.7,0-1.7,1.7-1.7C144,27.9,144.6,27.9,144.6,27.9z"/>
</g>
</svg>
