<?xml version="1.0" encoding="utf-8"?>
<!-- Generator: Adobe Illustrator 25.4.1, SVG Export Plug-In . SVG Version: 6.00 Build 0)  -->
<svg version="1.1" id="Layer_1" xmlns="http://www.w3.org/2000/svg" xmlns:xlink="http://www.w3.org/1999/xlink" x="0px" y="0px"
	 viewBox="0 0 338.2 55.2" style="enable-background:new 0 0 338.2 55.2;" xml:space="preserve">
<style type="text/css">
	.st0{fill:#D6F1E5;}
	.st1{fill-rule:evenodd;clip-rule:evenodd;fill:#D6F1E5;}
	.st2{fill:#E2F2EA;}
	.st3{fill-rule:evenodd;clip-rule:evenodd;fill:#C5E2D4;}
</style>
<g>
	<path class="st0" d="M66.2,41.9c-0.8,0-1.3-0.2-1.7-0.4c-0.2-0.4-0.4-0.8-0.4-1.5V16.5c0-0.6,0.2-1.3,0.4-1.5
		c0.4-0.4,0.8-0.6,1.7-0.6H76c3.8,0,6.5,0.8,8.4,2.3c1.7,1.7,2.7,4,2.7,7.1s-0.8,5.5-2.7,7.1c-1.7,1.5-4.6,2.3-8.4,2.3h-3.8v6.5
		c0,0.6-0.2,1.3-0.4,1.5c-0.4,0.4-0.8,0.4-1.7,0.4h-4L66.2,41.9L66.2,41.9z M75.4,27.4c1.1,0,1.9-0.2,2.5-0.8
		c0.6-0.6,0.8-1.5,0.8-2.7s-0.2-2.1-0.8-2.7s-1.5-0.8-2.5-0.8h-3.2v7.1H75.4z"/>
	<path class="st0" d="M96.6,42.5c-2.5,0-4.6-0.8-6.1-2.5s-2.3-4-2.3-6.9c0-2.3,0.4-4.2,1.5-5.9s2.5-2.9,4.4-4
		c1.9-0.8,4.2-1.5,6.5-1.5c2.1,0,3.8,0.2,5.5,0.6s2.9,1,4.4,1.9v16.2c0,0.4,0,0.8-0.2,1s-0.6,0.2-1.1,0.2H105c-0.2,0-0.6,0-0.6-0.2
		c-0.2-0.2-0.2-0.2-0.4-0.4l-0.6-1.3c-0.8,0.8-1.7,1.5-2.7,1.9C99.6,42.3,98.1,42.5,96.6,42.5z M99.6,37.1c1.1,0,1.9-0.2,2.5-0.8
		c0.6-0.4,0.8-1.3,0.8-2.1v-6.3c-0.4-0.2-1.3-0.4-1.9-0.4c-1.5,0-2.5,0.4-3.4,1.5c-0.8,1-1.3,2.3-1.3,4.2
		C96.4,35.6,97.5,37.1,99.6,37.1z"/>
	<path class="st0" d="M116.2,41.9c-0.8,0-1.3-0.2-1.7-0.4c-0.4-0.4-0.4-0.8-0.4-1.5V23.6c0-0.4,0-0.8,0.2-1s0.6-0.2,1.1-0.2h4.2
		c0.4,0,0.6,0,0.6,0.2c0.2,0,0.2,0.2,0.4,0.4l0.2,1.3c0.8-0.8,1.7-1.3,2.9-1.7s2.5-0.6,4.2-0.6c2.1,0,4,0.6,5.2,1.9s2.1,2.9,2.1,5.5
		V40c0,0.6-0.2,1.3-0.4,1.5c-0.2,0.4-0.8,0.4-1.7,0.4h-4c-0.8,0-1.3-0.2-1.7-0.4c-0.4-0.4-0.4-0.8-0.4-1.5V29.7
		c0-0.8-0.2-1.5-0.6-1.7c-0.4-0.4-0.8-0.6-1.7-0.6s-1.5,0.2-1.9,0.6s-0.6,1-0.6,1.7v10.1c0,0.6-0.2,1.3-0.4,1.5
		c-0.2,0.4-0.8,0.4-1.7,0.4h-4L116.2,41.9L116.2,41.9z"/>
	<path class="st0" d="M149.6,42.5c-3.8,0-6.7-0.8-8.8-2.7c-2.1-1.7-3.1-4.2-3.1-7.6c0-2.1,0.4-3.8,1.5-5.5c0.8-1.5,2.3-2.7,4-3.6
		c1.9-0.8,4-1.3,6.3-1.3c1.9,0,3.4,0.2,4.6,0.6s2.5,0.8,3.4,1.7c0.2,0.2,0.4,0.4,0.4,0.6s-0.2,0.4-0.4,0.8l-1.7,2.9
		c-0.2,0.4-0.4,0.6-0.6,0.6s-0.4-0.2-0.8-0.4c-0.6-0.4-1.5-0.8-2.1-1s-1.5-0.4-2.3-0.4c-1.3,0-2.5,0.4-3.4,1.3s-1.3,2.1-1.3,3.6
		c0,1.5,0.4,2.7,1.3,3.6s1.9,1.3,3.4,1.3c0.8,0,1.7-0.2,2.3-0.4s1.5-0.6,2.1-1c0.4-0.2,0.6-0.4,0.8-0.4c0.2,0,0.4,0.2,0.6,0.6
		l1.9,3.2c0.2,0.2,0.2,0.4,0.2,0.6c0,0.2-0.2,0.4-0.4,0.6c-1.1,0.6-2.3,1.3-3.8,1.7C152.9,42.3,151.5,42.5,149.6,42.5z"/>
	<path class="st0" d="M168.7,42.5c-2.5,0-4.6-0.8-6.1-2.5s-2.3-4-2.3-6.9c0-2.3,0.4-4.2,1.5-5.9s2.5-2.9,4.4-4
		c1.9-0.8,4.2-1.5,6.5-1.5c2.1,0,3.8,0.2,5.5,0.6c1.7,0.4,2.9,1,4.4,1.9v16.2c0,0.4,0,0.8-0.2,1s-0.6,0.2-1.1,0.2h-4.2
		c-0.2,0-0.6,0-0.6-0.2c-0.2-0.2-0.2-0.2-0.4-0.4l-0.6-1.3c-0.8,0.8-1.7,1.5-2.7,1.9C171.6,42.3,170.4,42.5,168.7,42.5z M171.9,37.1
		c1.1,0,1.9-0.2,2.5-0.8c0.6-0.4,0.8-1.3,0.8-2.1v-6.3c-0.4-0.2-1.3-0.4-1.9-0.4c-1.5,0-2.5,0.4-3.4,1.5s-1.3,2.3-1.3,4.2
		C168.5,35.6,169.5,37.1,171.9,37.1z"/>
	<path class="st0" d="M208.2,40.4c0.2,0.2,0.2,0.4,0.2,0.6c0,0.2,0,0.4-0.2,0.6c-0.2,0.2-0.4,0.2-0.6,0.2h-6.3c-0.4,0-0.6,0-0.8,0
		s-0.4-0.2-0.6-0.4l-5.5-7.6v5.9c0,0.6-0.2,1.3-0.4,1.5c-0.4,0.4-0.8,0.4-1.7,0.4h-4c-0.8,0-1.3-0.2-1.7-0.4
		c-0.2-0.4-0.4-0.8-0.4-1.5V16.5c0-0.6,0.2-1.3,0.4-1.5c0.4-0.4,0.8-0.6,1.7-0.6h4c0.8,0,1.3,0.2,1.7,0.6s0.4,0.8,0.4,1.5v13.5
		l5.2-6.9c0.2-0.2,0.4-0.4,0.6-0.4s0.4-0.2,0.8-0.2h6.3c0.2,0,0.4,0,0.6,0.2s0.2,0.4,0.2,0.6s0,0.4-0.2,0.6l-6.9,8L208.2,40.4z"/>
	<path class="st0" d="M221.2,42.5c-2.3,0-4.2-0.4-6.1-1c-1.7-0.8-3.1-1.9-4.2-3.4s-1.5-3.4-1.5-5.5c0-3.4,1.1-6.1,2.9-7.8
		c1.9-1.9,4.8-2.7,8.4-2.7s6.3,0.8,8,2.7c1.9,1.7,2.7,4.2,2.7,7.4c0,1.3-0.6,2.1-1.7,2.1h-12.6c0,1.3,0.4,2.1,1.3,2.7s2.3,0.8,4,0.8
		c1.1,0,2.1,0,2.7-0.2c0.8-0.2,1.5-0.6,2.3-0.8c0.4-0.2,0.6-0.2,0.6-0.2c0.2,0,0.4,0.2,0.6,0.4l1.5,2.5c0.2,0.2,0.2,0.4,0.2,0.6
		c0,0.2-0.2,0.4-0.4,0.6c-1.1,0.6-2.3,1.3-3.8,1.7C224.6,42.3,223.1,42.5,221.2,42.5z M224.4,29.9c0-1-0.2-1.9-0.8-2.3
		c-0.6-0.6-1.5-0.8-2.7-0.8s-2.1,0.2-2.7,0.8c-0.6,0.6-0.8,1.3-0.8,2.3H224.4z"/>
	<path class="st0" d="M245.6,42.5c-2.3,0-4.4-0.2-6.5-0.6c-2.1-0.4-3.6-1.3-4.8-2.1c-0.4-0.2-0.6-0.6-0.6-0.8s0-0.4,0.2-0.6l1.9-3.2
		c0.2-0.4,0.4-0.4,0.6-0.4s0.4,0,0.6,0.2c1.1,0.6,2.1,1,3.4,1.5s2.5,0.6,3.8,0.6s2.1-0.2,2.7-0.6c0.6-0.4,0.8-1,0.8-1.9
		s-0.4-1.5-1.1-1.9s-1.9-1-3.8-1.7c-2.7-1-4.8-2.1-6.3-3.4s-2.3-3.1-2.3-5.2c0-2.7,1.1-4.6,2.9-6.1s4.4-2.1,7.6-2.1
		c2.3,0,4.2,0.2,5.7,0.6c1.7,0.4,2.9,1.1,4,1.7c0.4,0.4,0.6,0.6,0.6,1c0,0.2,0,0.4-0.2,0.6l-1.9,3.1c-0.2,0.4-0.4,0.4-0.6,0.4
		s-0.4,0-0.6-0.2c-1.5-1-3.4-1.5-5.7-1.5c-1.3,0-2.1,0.2-2.7,0.6c-0.6,0.4-0.8,1-0.8,1.9c0,0.6,0.2,1,0.4,1.5c0.4,0.4,0.8,0.6,1.3,1
		c0.6,0.2,1.5,0.6,2.5,1l0.8,0.2c1.9,0.8,3.6,1.5,4.6,2.3c1.3,0.6,2.1,1.7,2.7,2.7c0.6,1.1,0.8,2.3,0.8,3.8c0,2.3-0.8,4.4-2.7,5.7
		C251.7,41.7,249,42.5,245.6,42.5z"/>
	<path class="st0" d="M264.7,41.9c-0.4,0-0.6,0-0.8-0.2s-0.4-0.4-0.4-0.8l-5.2-17.4c0-0.2,0-0.2,0-0.4c0-0.4,0.2-0.6,0.8-0.6h5.2
		c0.4,0,0.6,0,0.8,0.2s0.2,0.2,0.4,0.6l2.1,9.2l2.7-7.4c0.2-0.4,0.2-0.6,0.4-0.6c0.2-0.2,0.4-0.2,0.8-0.2h2.5c0.4,0,0.6,0,0.8,0.2
		s0.2,0.4,0.4,0.6l2.7,7.4l2.3-9.2c0-0.2,0.2-0.4,0.4-0.6c0.2-0.2,0.4-0.2,0.6-0.2h5.5c0.6,0,0.8,0.2,0.8,0.6c0,0,0,0.2,0,0.4
		l-5.2,17.4c-0.2,0.4-0.2,0.6-0.4,0.8c-0.2,0.2-0.4,0.2-0.8,0.2h-4c-0.4,0-0.6,0-0.8-0.2s-0.4-0.4-0.4-0.8l-2.7-7.4l-2.7,7.4
		c-0.2,0.4-0.2,0.6-0.4,0.8c-0.2,0.2-0.4,0.2-0.8,0.2H264.7z"/>
	<path class="st0" d="M297.5,42.5c-2.5,0-4.6-0.8-6.1-2.5s-2.3-4-2.3-6.9c0-2.3,0.4-4.2,1.5-5.9s2.5-2.9,4.4-4
		c1.9-0.8,4.2-1.5,6.5-1.5c2.1,0,3.8,0.2,5.5,0.6s2.9,1,4.4,1.9v16.2c0,0.4,0,0.8-0.2,1s-0.6,0.2-1,0.2h-4.2c-0.2,0-0.4,0-0.6-0.2
		s-0.2-0.2-0.4-0.4l-0.6-1.3c-0.8,0.8-1.7,1.5-2.7,1.9C300.5,42.3,299.2,42.5,297.5,42.5z M300.7,37.1c1,0,1.9-0.2,2.5-0.8
		c0.6-0.4,0.8-1.3,0.8-2.1v-6.3c-0.4-0.2-1.3-0.4-1.9-0.4c-1.5,0-2.5,0.4-3.4,1.5s-1.3,2.3-1.3,4.2
		C297.3,35.6,298.4,37.1,300.7,37.1z"/>
	<path class="st0" d="M317.1,50.1c-0.8,0-1.3-0.2-1.7-0.4c-0.2-0.4-0.4-0.8-0.4-1.5V25.1c1.3-0.8,2.7-1.7,4.6-2.1
		c1.9-0.6,3.8-0.8,5.7-0.8c8.2,0,12.2,3.4,12.2,10.3c0,3.2-0.8,5.7-2.5,7.6c-1.7,1.9-4.2,2.7-7.4,2.7c-0.8,0-1.7-0.2-2.5-0.4
		s-1.5-0.4-2.1-0.8v6.7c0,0.6-0.2,1.3-0.4,1.5c-0.4,0.4-0.8,0.4-1.7,0.4H317.1z M325.9,37.1c1.3,0,2.1-0.4,2.5-1.3
		c0.6-0.8,0.8-2.1,0.8-3.6c0-1.7-0.4-2.9-1-3.8c-0.6-0.6-1.7-1-3.1-1c-0.8,0-1.7,0.2-2.1,0.4v6.3c0,0.8,0.2,1.7,0.8,2.1
		C324.2,36.8,325,37.1,325.9,37.1z"/>
	<path class="st1" d="M10.5,9.7C9.6,5.5,13,1.5,17.2,1.5c3.8,0,6.9,3.2,6.9,6.9v8.4c1,0,1.9,0,2.9,0c0.8,0,1.9,0,2.7,0V8.5
		c0-3.8,3.1-6.9,6.9-6.9c4.2,0,7.6,4,6.7,8.2l-1.9,9.9c6.3,2.7,11.1,7.6,11.1,13.7v3.6c0,5-3.4,9.2-8,12c-4.6,2.9-10.9,4.6-17.9,4.6
		S13.6,51.8,9,48.8c-4.6-2.8-8-7-8-12v-3.6c0-6.1,4.8-10.9,11.1-13.7L10.5,9.7z M39.2,21.1l2.1-11.6c0.6-2.9-1.7-5.7-4.6-5.7
		c-2.7,0-4.8,2.1-4.8,4.8v10.7c-0.6,0-1.5-0.2-2.1-0.2c-0.8,0-1.9,0-2.7,0c-1,0-1.9,0-2.9,0.2c-0.6,0-1.5,0.2-2.1,0.2V8.9
		c0-2.7-2.1-4.8-4.8-4.8c-2.9,0-5.2,2.7-4.6,5.7l2.1,11.8C8,24,3.3,28.6,3.3,33.9v3.6c0,8,10.5,14.5,23.5,14.5s23.5-6.5,23.5-14.5
		v-3.6C50.6,28.2,46,23.6,39.2,21.1z"/>
	<path class="st2" d="M50.6,37.1c0,8-10.5,14.5-23.5,14.5S3.5,45,3.5,37.1v-3.6h47.3v3.6H50.6z"/>
	<path class="st3" d="M12.6,9.3c-0.6-2.9,1.7-5.7,4.6-5.7c2.7,0,4.8,2.1,4.8,4.8v10.9c1.7-0.2,3.4-0.4,5-0.4c1.7,0,3.4,0.2,4.8,0.2
		V8.5c0-2.7,2.1-4.8,4.8-4.8c2.9,0,5.2,2.7,4.6,5.7l-2.1,11.6c6.9,2.5,11.6,7.1,11.6,12.4c0,8-10.5,14.5-23.5,14.5
		S3.7,41.3,3.7,33.3c0-5.2,4.6-9.9,11.4-12.4L12.6,9.3z"/>
	<path class="st0" d="M20.5,32.4c0,2.1-1.3,4-2.5,4s-2.5-1.7-2.5-4c0-2.1,1.3-4,2.5-4S20.5,30.1,20.5,32.4z"/>
	<path class="st0" d="M38.6,32.4c0,2.1-1.3,4-2.5,4c-1.5,0-2.5-1.7-2.5-4c0-2.1,1.3-4,2.5-4S38.6,30.1,38.6,32.4z"/>
</g>
</svg>
